<svg xmlns="http://www.w3.org/2000/svg"
    width="1090px"
    height="470px"
    viewBox="0 0 1090 470">
  <rect width="100%" height="100%" fill="white"/>
  <g id="title" font-family="Arial" font-size="18" fill="black">
    <text x="545.00" y="30" text-anchor="middle">Coupe stratigraphique</text>
  </g>
  <g id="axes" stroke="black" stroke-width="1" fill="none">
    <line x1="90.00" y1="70.00" x2="1010.00" y2="70.00" />
    <line x1="90.00" y1="70.00" x2="90.00" y2="390.00" />
  </g>
  <g id="axis_ticks_labels" stroke="black" stroke-width="1" fill="black" font-family="Arial" font-size="14">
    <line x1="90.00" y1="70.00" x2="90.00" y2="76.00" />
    <text x="90.00" y="92.00" text-anchor="middle">0</text>
    <line x1="130.00" y1="70.00" x2="130.00" y2="76.00" />
    <text x="130.00" y="92.00" text-anchor="middle">10</text>
    <line x1="170.00" y1="70.00" x2="170.00" y2="76.00" />
    <text x="170.00" y="92.00" text-anchor="middle">20</text>
    <line x1="210.00" y1="70.00" x2="210.00" y2="76.00" />
    <text x="210.00" y="92.00" text-anchor="middle">30</text>
    <line x1="250.00" y1="70.00" x2="250.00" y2="76.00" />
    <text x="250.00" y="92.00" text-anchor="middle">40</text>
    <line x1="290.00" y1="70.00" x2="290.00" y2="76.00" />
    <text x="290.00" y="92.00" text-anchor="middle">50</text>
    <line x1="330.00" y1="70.00" x2="330.00" y2="76.00" />
    <text x="330.00" y="92.00" text-anchor="middle">60</text>
    <line x1="370.00" y1="70.00" x2="370.00" y2="76.00" />
    <text x="370.00" y="92.00" text-anchor="middle">70</text>
    <line x1="410.00" y1="70.00" x2="410.00" y2="76.00" />
    <text x="410.00" y="92.00" text-anchor="middle">80</text>
    <line x1="450.00" y1="70.00" x2="450.00" y2="76.00" />
    <text x="450.00" y="92.00" text-anchor="middle">90</text>
    <line x1="490.00" y1="70.00" x2="490.00" y2="76.00" />
    <text x="490.00" y="92.00" text-anchor="middle">100</text>
    <line x1="530.00" y1="70.00" x2="530.00" y2="76.00" />
    <text x="530.00" y="92.00" text-anchor="middle">110</text>
    <line x1="570.00" y1="70.00" x2="570.00" y2="76.00" />
    <text x="570.00" y="92.00" text-anchor="middle">120</text>
    <line x1="610.00" y1="70.00" x2="610.00" y2="76.00" />
    <text x="610.00" y="92.00" text-anchor="middle">130</text>
    <line x1="650.00" y1="70.00" x2="650.00" y2="76.00" />
    <text x="650.00" y="92.00" text-anchor="middle">140</text>
    <line x1="690.00" y1="70.00" x2="690.00" y2="76.00" />
    <text x="690.00" y="92.00" text-anchor="middle">150</text>
    <line x1="730.00" y1="70.00" x2="730.00" y2="76.00" />
    <text x="730.00" y="92.00" text-anchor="middle">160</text>
    <line x1="770.00" y1="70.00" x2="770.00" y2="76.00" />
    <text x="770.00" y="92.00" text-anchor="middle">170</text>
    <line x1="810.00" y1="70.00" x2="810.00" y2="76.00" />
    <text x="810.00" y="92.00" text-anchor="middle">180</text>
    <line x1="850.00" y1="70.00" x2="850.00" y2="76.00" />
    <text x="850.00" y="92.00" text-anchor="middle">190</text>
    <line x1="890.00" y1="70.00" x2="890.00" y2="76.00" />
    <text x="890.00" y="92.00" text-anchor="middle">200</text>
    <line x1="930.00" y1="70.00" x2="930.00" y2="76.00" />
    <text x="930.00" y="92.00" text-anchor="middle">210</text>
    <line x1="970.00" y1="70.00" x2="970.00" y2="76.00" />
    <text x="970.00" y="92.00" text-anchor="middle">220</text>
    <line x1="1010.00" y1="70.00" x2="1010.00" y2="76.00" />
    <text x="1010.00" y="92.00" text-anchor="middle">230</text>
    <line x1="90.00" y1="70.00" x2="84.00" y2="70.00" />
    <text x="80.00" y="75.00" text-anchor="end">0</text>
    <line x1="90.00" y1="110.00" x2="84.00" y2="110.00" />
    <text x="80.00" y="115.00" text-anchor="end">-10</text>
    <line x1="90.00" y1="150.00" x2="84.00" y2="150.00" />
    <text x="80.00" y="155.00" text-anchor="end">-20</text>
    <line x1="90.00" y1="190.00" x2="84.00" y2="190.00" />
    <text x="80.00" y="195.00" text-anchor="end">-30</text>
    <line x1="90.00" y1="230.00" x2="84.00" y2="230.00" />
    <text x="80.00" y="235.00" text-anchor="end">-40</text>
    <line x1="90.00" y1="270.00" x2="84.00" y2="270.00" />
    <text x="80.00" y="275.00" text-anchor="end">-50</text>
    <line x1="90.00" y1="310.00" x2="84.00" y2="310.00" />
    <text x="80.00" y="315.00" text-anchor="end">-60</text>
    <line x1="90.00" y1="350.00" x2="84.00" y2="350.00" />
    <text x="80.00" y="355.00" text-anchor="end">-70</text>
    <line x1="90.00" y1="390.00" x2="84.00" y2="390.00" />
    <text x="80.00" y="395.00" text-anchor="end">-80</text>
  </g>
  <g id="axis_captions" font-family="Arial" font-size="16" fill="black">
    <text x="90.00" y="55.00" text-anchor="start">OUEST</text>
    <text x="1010.00" y="55.00" text-anchor="end">EST</text>
  </g>
  <g id="stratigraphic_boundaries" fill="none" stroke="black" stroke-width="2" stroke-linejoin="round" stroke-linecap="round">
    <polyline id="z_sup_crollo_1" points="90.00,70.00 130.00,70.00 170.00,110.00 210.00,134.00 250.00,206.00 290.00,242.00 330.00,164.00 370.00,142.00 410.00,154.00 450.00,114.00 490.00,106.00 530.00,138.00 570.00,182.00 610.00,146.00 650.00,104.00 690.00,150.00 730.00,134.00 770.00,118.00 810.00,110.00 850.00,78.00 890.00,78.00 930.00,78.00 970.00,94.00 1010.00,70.00" />
    <polyline id="z_inf_crollo_1" points="90.00,70.00 130.00,70.00 170.00,174.00 210.00,194.00 250.00,250.00 290.00,278.00 330.00,260.00 370.00,274.00 410.00,276.00 450.00,214.00 490.00,206.00 530.00,226.00 570.00,208.00 610.00,258.00 650.00,218.00 690.00,198.00 730.00,218.00 770.00,186.00 810.00,174.00 850.00,168.00 890.00,166.00 930.00,114.00 970.00,86.00 1010.00,70.00" />
    <polyline id="z_sup_fosse_1" points="290.00,320.00 330.00,322.00 370.00,330.00 410.00,338.00 450.00,338.00 490.00,330.00 530.00,320.00 570.00,314.00 610.00,326.00 650.00,314.00 690.00,322.00 730.00,310.00 770.00,342.00 810.00,354.00 850.00,346.00 890.00,354.00 930.00,342.00 970.00,78.00 1010.00,70.00" />
  </g>
  <g id="line_labels" font-family="Arial" font-size="14" fill="black">
    <text x="1018.00" y="70.00" text-anchor="start">Z sup crollo</text>
    <text x="1018.00" y="70.00" text-anchor="start">Z inf crollo</text>
    <text x="1018.00" y="70.00" text-anchor="start">Z sup fosse</text>
  </g>
</svg>